<?xml version="1.0" encoding="UTF-8" standalone="no"?>
<!-- Created with Inkscape (http://www.inkscape.org/) -->

<svg
   xmlns:dc="http://purl.org/dc/elements/1.1/"
   xmlns:cc="http://creativecommons.org/ns#"
   xmlns:rdf="http://www.w3.org/1999/02/22-rdf-syntax-ns#"
   xmlns:svg="http://www.w3.org/2000/svg"
   xmlns="http://www.w3.org/2000/svg"
   xmlns:sodipodi="http://sodipodi.sourceforge.net/DTD/sodipodi-0.dtd"
   xmlns:inkscape="http://www.inkscape.org/namespaces/inkscape"
   width="160"
   height="60"
   viewBox="0 0 42.333332 15.875"
   version="1.1"
   id="svg8"
   inkscape:version="0.92.4 (5da689c313, 2019-01-14)"
   sodipodi:docname="yababay-ru.svg">
  <defs
     id="defs2" />
  <sodipodi:namedview
     id="base"
     pagecolor="#ffffff"
     bordercolor="#666666"
     borderopacity="1.0"
     inkscape:pageopacity="0.0"
     inkscape:pageshadow="2"
     inkscape:zoom="5.1325738"
     inkscape:cx="81.354827"
     inkscape:cy="21.763357"
     inkscape:document-units="mm"
     inkscape:current-layer="layer1"
     showgrid="false"
     inkscape:window-width="1920"
     inkscape:window-height="1051"
     inkscape:window-x="0"
     inkscape:window-y="0"
     inkscape:window-maximized="1"
     units="px" />
  <metadata
     id="metadata5">
    <rdf:RDF>
      <cc:Work
         rdf:about="">
        <dc:format>image/svg+xml</dc:format>
        <dc:type
           rdf:resource="http://purl.org/dc/dcmitype/StillImage" />
        <dc:title></dc:title>
      </cc:Work>
    </rdf:RDF>
  </metadata>
  <g
     inkscape:label="Layer 1"
     inkscape:groupmode="layer"
     id="layer1"
     transform="translate(0,-281.12498)">
    <g
       id="g925"
       transform="translate(-22.475726,255.68716)">
      <rect
         y="25.43782"
         x="22.475727"
         height="15.875"
         width="42.333332"
         id="rect824"
         style="fill:none;fill-opacity:0.49652782;stroke:none;stroke-width:1.78425503;stroke-miterlimit:4;stroke-dasharray:none;stroke-dashoffset:0" />
      <g
         aria-label="Yababay.ru"
         transform="matrix(0.25235652,0,0,0.26458333,1.0386389,0.52916667)"
         style="font-style:normal;font-weight:normal;font-size:40px;line-height:1.25;font-family:sans-serif;letter-spacing:0px;word-spacing:0px;fill:#000000;fill-opacity:1;stroke:none"
         id="flowRoot815">
        <path
           inkscape:connector-curvature="0"
           d="m 101.78516,134.07617 q 0,-1.40625 0.42968,-2.73437 0.42969,-1.36719 0.9375,-2.73438 0.50782,-1.36719 0.85938,-2.69531 0.39062,-1.36719 0.27344,-2.85156 -1.13282,-1.25 -2.5,-2.69532 -1.36719,-1.48437 -2.695316,-3.04687 -1.328125,-1.60156 -2.460938,-3.28125 -1.132812,-1.71875 -1.835937,-3.47656 -0.03906,-0.0391 -0.03906,-0.11719 v -0.15625 q 0,-0.46875 0.351563,-0.625 0.351562,-0.15625 0.742187,-0.15625 1.015625,1.21094 2.148438,2.77344 1.171875,1.52343 2.382813,3.04687 1.21093,1.52344 2.46093,2.92969 1.25,1.36719 2.46094,2.26562 h 0.50781 q 0.15625,-0.27343 0.54688,-1.32812 0.39062,-1.09375 0.9375,-2.57813 0.58594,-1.48437 1.21094,-3.28125 0.625,-1.79687 1.17187,-3.51562 0.58594,-1.75781 0.97656,-3.28125 0.42969,-1.52344 0.625,-2.5 0.0391,-0.0781 0.23438,-0.0781 0.58594,0 0.9375,0.54688 0.39062,0.50781 0.3125,1.05469 -1.05469,3.71093 -1.75781,6.09375 -0.66407,2.38281 -1.13282,3.90625 -0.42968,1.48437 -0.74218,2.42187 -0.3125,0.89844 -0.66407,1.71875 -0.3125,0.82031 -0.66406,1.83594 -0.35156,0.97656 -0.9375,2.65625 -0.58594,1.64062 -1.44531,4.25781 -0.85938,2.57813 -2.14844,6.60156 -0.0391,0 -0.23437,0 -0.15625,0.0391 -0.23438,0.0391 -1.01562,0 -1.01562,-1.01563 z"
           style="font-style:normal;font-variant:normal;font-weight:normal;font-stretch:normal;font-family:'Shadows Into Light';-inkscape-font-specification:'Shadows Into Light, '"
           id="path833" />
        <path
           inkscape:connector-curvature="0"
           d="m 125.76953,134.03711 q -0.19531,-1.01563 -0.35156,-2.42188 -0.11719,-1.44531 -0.27344,-2.89062 -0.15625,-1.48438 -0.39062,-2.77344 -0.19532,-1.28906 -0.625,-2.10937 -1.99219,4.0625 -3.51563,6.40625 -1.52344,2.30468 -2.69531,3.32031 -1.13281,0.97656 -1.91406,0.9375 -0.78125,-0.0391 -1.28907,-0.70313 -0.50781,-0.66406 -0.74218,-1.67968 -0.19532,-1.05469 -0.27344,-1.95313 0,-0.85937 0.39062,-2.42187 0.39063,-1.5625 1.05469,-3.39844 0.66406,-1.875 1.5625,-3.78906 0.9375,-1.91407 1.99219,-3.47657 1.05469,-1.5625 2.1875,-2.57812 1.13281,-1.01563 2.26562,-1.01563 1.67969,-0.27343 2.46094,0.74219 0.82031,0.97656 0.3125,3.32031 0,2.57813 0.19531,4.41407 0.23438,1.83593 0.46875,3.51562 0.27344,1.67969 0.46875,3.51563 0.23438,1.83593 0.23438,4.41406 0,0.46875 -0.11719,0.82031 -0.0781,0.3125 -0.9375,0.3125 -0.11719,0 -0.3125,-0.19531 -0.15625,-0.19531 -0.15625,-0.3125 z m -2.10937,-17.46094 q -0.42969,-0.625 -1.17188,-0.11719 -0.74219,0.50782 -1.5625,1.67969 -0.82031,1.17188 -1.67969,2.8125 -0.85937,1.64063 -1.60156,3.32031 -0.74219,1.67969 -1.28906,3.20313 -0.54688,1.48437 -0.74219,2.46094 0,1.40625 0.42969,1.60156 0.42969,0.15625 1.05469,-0.46875 0.625,-0.625 1.40625,-1.79688 0.82031,-1.17187 1.5625,-2.5 0.78125,-1.32812 1.44531,-2.57812 0.70312,-1.25 1.09375,-2.03125 0.35156,-0.82031 0.54687,-1.52344 0.19532,-0.70312 0.3125,-1.32812 0.15625,-0.66407 0.15625,-1.32813 0.0391,-0.66406 0.0391,-1.40625 z"
           style="font-style:normal;font-variant:normal;font-weight:normal;font-stretch:normal;font-family:'Shadows Into Light';-inkscape-font-specification:'Shadows Into Light, '"
           id="path835" />
        <path
           inkscape:connector-curvature="0"
           d="m 129.98828,134.7793 q -0.19531,-3.08594 -0.15625,-6.5625 0.0781,-3.47657 0.19531,-7.5 0.11719,-4.02344 0.19532,-8.71094 0.11718,-4.72656 0.0391,-10.3125 0.42969,0 0.89844,-0.0391 0.46875,-0.0781 0.82031,-0.0391 0.39062,0.0391 0.625,0.23438 0.27344,0.19531 0.27344,0.70312 0,1.44532 -0.11719,3.35938 -0.0781,1.875 -0.23438,4.14062 -0.15625,2.22657 -0.27343,4.80469 -0.0781,2.57813 -0.0781,5.42969 1.36719,-1.79688 2.53906,-2.92969 1.17188,-1.13281 2.22657,-1.79687 1.05468,-0.70313 2.07031,-0.85938 1.01562,-0.19531 1.99219,-0.11719 1.13281,0 1.83593,0.625 0.74219,0.625 1.13282,1.5625 0.39062,0.9375 0.54687,2.10938 0.15625,1.13281 0.15625,2.22656 0,0.78125 -0.11719,1.67969 -0.0781,0.85937 -0.42968,1.91406 -0.35157,1.05469 -1.09375,2.1875 -0.70313,1.09375 -1.99219,2.34375 -1.28906,1.25 -3.28125,2.57813 -1.95313,1.32812 -4.76563,2.73437 -0.9375,0.27344 -1.52343,0.35156 -0.54688,0.0391 -0.89844,0.0391 -0.3125,-0.0391 -0.46875,-0.0781 -0.11719,-0.0391 -0.11719,-0.0781 z m 1.67969,-2.34375 q 0.19531,-0.11719 1.05469,-0.50782 0.85937,-0.42968 2.03125,-1.09375 1.17187,-0.66406 2.53906,-1.60156 1.36719,-0.9375 2.5,-2.1875 1.17187,-1.25 1.99219,-2.8125 0.82031,-1.5625 0.97656,-3.4375 0,-0.54687 -0.15625,-1.17187 -0.15625,-0.625 -0.50781,-1.17188 -0.3125,-0.54687 -0.82032,-0.89844 -0.50781,-0.39062 -1.21093,-0.39062 -1.44532,0 -2.73438,0.78125 -1.25,0.78125 -2.30469,1.95312 -1.05468,1.17188 -1.875,2.53907 -0.82031,1.32812 -1.32812,2.46093 z"
           style="font-style:normal;font-variant:normal;font-weight:normal;font-stretch:normal;font-family:'Shadows Into Light';-inkscape-font-specification:'Shadows Into Light, '"
           id="path837" />
        <path
           inkscape:connector-curvature="0"
           d="m 158.19141,134.03711 q -0.19532,-1.01563 -0.35157,-2.42188 -0.11718,-1.44531 -0.27343,-2.89062 -0.15625,-1.48438 -0.39063,-2.77344 -0.19531,-1.28906 -0.625,-2.10937 -1.99219,4.0625 -3.51562,6.40625 -1.52344,2.30468 -2.69532,3.32031 -1.13281,0.97656 -1.91406,0.9375 -0.78125,-0.0391 -1.28906,-0.70313 -0.50781,-0.66406 -0.74219,-1.67968 -0.19531,-1.05469 -0.27344,-1.95313 0,-0.85937 0.39063,-2.42187 0.39062,-1.5625 1.05469,-3.39844 0.66406,-1.875 1.5625,-3.78906 0.9375,-1.91407 1.99218,-3.47657 1.05469,-1.5625 2.1875,-2.57812 1.13282,-1.01563 2.26563,-1.01563 1.67969,-0.27343 2.46094,0.74219 0.82031,0.97656 0.3125,3.32031 0,2.57813 0.19531,4.41407 0.23437,1.83593 0.46875,3.51562 0.27344,1.67969 0.46875,3.51563 0.23437,1.83593 0.23437,4.41406 0,0.46875 -0.11718,0.82031 -0.0781,0.3125 -0.9375,0.3125 -0.11719,0 -0.3125,-0.19531 -0.15625,-0.19531 -0.15625,-0.3125 z m -2.10938,-17.46094 q -0.42969,-0.625 -1.17187,-0.11719 -0.74219,0.50782 -1.5625,1.67969 -0.82032,1.17188 -1.67969,2.8125 -0.85938,1.64063 -1.60156,3.32031 -0.74219,1.67969 -1.28907,3.20313 -0.54687,1.48437 -0.74218,2.46094 0,1.40625 0.42968,1.60156 0.42969,0.15625 1.05469,-0.46875 0.625,-0.625 1.40625,-1.79688 0.82031,-1.17187 1.5625,-2.5 0.78125,-1.32812 1.44531,-2.57812 0.70313,-1.25 1.09375,-2.03125 0.35157,-0.82031 0.54688,-1.52344 0.19531,-0.70312 0.3125,-1.32812 0.15625,-0.66407 0.15625,-1.32813 0.0391,-0.66406 0.0391,-1.40625 z"
           style="font-style:normal;font-variant:normal;font-weight:normal;font-stretch:normal;font-family:'Shadows Into Light';-inkscape-font-specification:'Shadows Into Light, '"
           id="path839" />
        <path
           inkscape:connector-curvature="0"
           d="m 162.41016,134.7793 q -0.19532,-3.08594 -0.15625,-6.5625 0.0781,-3.47657 0.19531,-7.5 0.11719,-4.02344 0.19531,-8.71094 0.11719,-4.72656 0.0391,-10.3125 0.42969,0 0.89844,-0.0391 0.46875,-0.0781 0.82031,-0.0391 0.39063,0.0391 0.625,0.23438 0.27344,0.19531 0.27344,0.70312 0,1.44532 -0.11719,3.35938 -0.0781,1.875 -0.23437,4.14062 -0.15625,2.22657 -0.27344,4.80469 -0.0781,2.57813 -0.0781,5.42969 1.36718,-1.79688 2.53906,-2.92969 1.17187,-1.13281 2.22656,-1.79687 1.05469,-0.70313 2.07031,-0.85938 1.01563,-0.19531 1.99219,-0.11719 1.13281,0 1.83594,0.625 0.74219,0.625 1.13281,1.5625 0.39063,0.9375 0.54688,2.10938 0.15625,1.13281 0.15625,2.22656 0,0.78125 -0.11719,1.67969 -0.0781,0.85937 -0.42969,1.91406 -0.35156,1.05469 -1.09375,2.1875 -0.70312,1.09375 -1.99219,2.34375 -1.28906,1.25 -3.28125,2.57813 -1.95312,1.32812 -4.76562,2.73437 -0.9375,0.27344 -1.52344,0.35156 -0.54687,0.0391 -0.89844,0.0391 -0.3125,-0.0391 -0.46875,-0.0781 -0.11718,-0.0391 -0.11718,-0.0781 z m 1.67968,-2.34375 q 0.19532,-0.11719 1.05469,-0.50782 0.85938,-0.42968 2.03125,-1.09375 1.17188,-0.66406 2.53906,-1.60156 1.36719,-0.9375 2.5,-2.1875 1.17188,-1.25 1.99219,-2.8125 0.82031,-1.5625 0.97656,-3.4375 0,-0.54687 -0.15625,-1.17187 -0.15625,-0.625 -0.50781,-1.17188 -0.3125,-0.54687 -0.82031,-0.89844 -0.50781,-0.39062 -1.21094,-0.39062 -1.44531,0 -2.73437,0.78125 -1.25,0.78125 -2.30469,1.95312 -1.05469,1.17188 -1.875,2.53907 -0.82031,1.32812 -1.32813,2.46093 z"
           style="font-style:normal;font-variant:normal;font-weight:normal;font-stretch:normal;font-family:'Shadows Into Light';-inkscape-font-specification:'Shadows Into Light, '"
           id="path841" />
        <path
           inkscape:connector-curvature="0"
           d="m 190.61328,134.03711 q -0.19531,-1.01563 -0.35156,-2.42188 -0.11719,-1.44531 -0.27344,-2.89062 -0.15625,-1.48438 -0.39062,-2.77344 -0.19532,-1.28906 -0.625,-2.10937 -1.99219,4.0625 -3.51563,6.40625 -1.52344,2.30468 -2.69531,3.32031 -1.13281,0.97656 -1.91406,0.9375 -0.78125,-0.0391 -1.28907,-0.70313 -0.50781,-0.66406 -0.74218,-1.67968 -0.19532,-1.05469 -0.27344,-1.95313 0,-0.85937 0.39062,-2.42187 0.39063,-1.5625 1.05469,-3.39844 0.66406,-1.875 1.5625,-3.78906 0.9375,-1.91407 1.99219,-3.47657 1.05469,-1.5625 2.1875,-2.57812 1.13281,-1.01563 2.26562,-1.01563 1.67969,-0.27343 2.46094,0.74219 0.82031,0.97656 0.3125,3.32031 0,2.57813 0.19531,4.41407 0.23438,1.83593 0.46875,3.51562 0.27344,1.67969 0.46875,3.51563 0.23438,1.83593 0.23438,4.41406 0,0.46875 -0.11719,0.82031 -0.0781,0.3125 -0.9375,0.3125 -0.11719,0 -0.3125,-0.19531 -0.15625,-0.19531 -0.15625,-0.3125 z m -2.10937,-17.46094 q -0.42969,-0.625 -1.17188,-0.11719 -0.74219,0.50782 -1.5625,1.67969 -0.82031,1.17188 -1.67969,2.8125 -0.85937,1.64063 -1.60156,3.32031 -0.74219,1.67969 -1.28906,3.20313 -0.54688,1.48437 -0.74219,2.46094 0,1.40625 0.42969,1.60156 0.42969,0.15625 1.05469,-0.46875 0.625,-0.625 1.40625,-1.79688 0.82031,-1.17187 1.5625,-2.5 0.78125,-1.32812 1.44531,-2.57812 0.70312,-1.25 1.09375,-2.03125 0.35156,-0.82031 0.54687,-1.52344 0.19532,-0.70312 0.3125,-1.32812 0.15625,-0.66407 0.15625,-1.32813 0.0391,-0.66406 0.0391,-1.40625 z"
           style="font-style:normal;font-variant:normal;font-weight:normal;font-stretch:normal;font-family:'Shadows Into Light';-inkscape-font-specification:'Shadows Into Light, '"
           id="path843" />
        <path
           inkscape:connector-curvature="0"
           d="m 204.24609,134.89648 -10.07812,-16.13281 q -0.0391,-0.0391 -0.0781,-0.27344 -0.0391,-0.27343 -0.0391,-0.42968 0,-0.50782 0.15625,-0.85938 0.19531,-0.39062 0.9375,-0.39062 0.15625,0 0.54688,0.19531 0.39062,0.15625 0.46875,0.3125 0.85937,1.36719 1.75781,3.04687 0.9375,1.67969 1.91406,3.35938 1.01563,1.67969 2.10938,3.24219 1.09375,1.52343 2.30468,2.61718 l 0.9375,-15.3125 q 0.0391,0 0.19532,0 0.19531,-0.0391 0.27343,-0.0391 0.35157,0 0.70313,0.11719 0.35156,0.0781 0.50781,0.50781 0.0391,1.40625 0,3.47656 0,2.07032 -0.0781,4.25782 -0.0391,2.1875 -0.11719,4.21875 -0.0391,1.99218 -0.0781,3.20312 -0.0391,0.78125 -0.15625,2.34375 -0.0781,1.5625 -0.23437,3.51563 -0.11719,1.99218 -0.3125,4.17968 -0.15625,2.1875 -0.3125,4.14063 -0.15625,1.95312 -0.27344,3.51562 -0.11719,1.60157 -0.19531,2.30469 h -2.03125 z"
           style="font-style:normal;font-variant:normal;font-weight:normal;font-stretch:normal;font-family:'Shadows Into Light';-inkscape-font-specification:'Shadows Into Light, '"
           id="path845" />
        <path
           inkscape:connector-curvature="0"
           d="m 208.73828,133.5293 q 0.54688,-0.58594 0.9375,-0.78125 0.39063,-0.23438 1.01563,-0.23438 1.05468,0 1.05468,1.01563 0,0.23437 -0.15625,0.54687 -0.11718,0.27344 -0.35156,0.54688 -0.19531,0.27343 -0.46875,0.42968 -0.27344,0.11719 -0.50781,0 -0.27344,0.19532 -0.58594,0.0781 -0.27344,-0.0781 -0.50781,-0.3125 -0.23438,-0.23438 -0.39063,-0.54688 -0.11718,-0.35156 -0.0391,-0.74218 z"
           style="font-style:normal;font-variant:normal;font-weight:normal;font-stretch:normal;font-family:'Shadows Into Light';-inkscape-font-specification:'Shadows Into Light, '"
           id="path847" />
        <path
           inkscape:connector-curvature="0"
           d="m 213.89453,116.22461 v -0.3125 q 0,-0.39063 0.27344,-0.54688 0.3125,-0.15625 0.70312,-0.15625 0.3125,0 0.58594,0.0781 0.27344,0.0391 0.42969,0.42969 0.11719,0.58593 0.23437,1.64062 0.11719,1.01563 0.27344,2.26563 0.15625,1.25 0.3125,2.65625 0.19531,1.36718 0.35156,2.61718 0.19532,1.21094 0.39063,2.1875 0.19531,0.97657 0.42969,1.48438 -0.11719,-3.75 0.23437,-6.48438 0.35156,-2.77343 1.32813,-4.49218 1.01562,-1.75782 2.73437,-2.42188 1.75781,-0.70312 4.375,-0.3125 1.21094,0 1.21094,1.28906 0,0.50782 -0.66406,0.70313 -0.66407,0.15625 -1.48438,0.23437 -0.82031,0.0391 -1.60156,0.11719 -0.78125,0.0781 -1.13281,0.39063 -1.40625,0.78125 -1.99219,2.42187 -0.54688,1.64063 -0.78125,3.86719 -0.23438,2.22656 -0.35156,4.88281 -0.0781,2.61719 -0.50782,5.39063 0,0.39062 -0.3125,0.58593 -0.3125,0.19532 -0.78125,0.19532 -0.42968,0 -0.85937,-0.19532 -0.39063,-0.19531 -0.625,-0.58593 z"
           style="font-style:normal;font-variant:normal;font-weight:normal;font-stretch:normal;font-family:'Shadows Into Light';-inkscape-font-specification:'Shadows Into Light, '"
           id="path849" />
        <path
           inkscape:connector-curvature="0"
           d="m 239.67578,130.52148 q -0.15625,0.46875 -0.78125,1.28907 -0.58594,0.78125 -1.40625,1.60156 -0.82031,0.78125 -1.71875,1.40625 -0.85937,0.58594 -1.52344,0.58594 -1.25,0 -2.07031,-1.17188 -0.78125,-1.17187 -1.21094,-3.00781 -0.42968,-1.83594 -0.58593,-4.0625 -0.15625,-2.26563 -0.19532,-4.41406 -0.0391,-2.14844 -0.0391,-3.90625 0,-1.75782 -0.11719,-2.65625 0.15625,-0.39063 0.39063,-0.46875 0.27344,-0.0781 0.625,-0.0781 0.3125,0 0.54687,0.0781 0.27344,0.0781 0.46875,0.46875 0,0.42968 0,1.44531 0.0391,1.01562 0.11719,2.30469 0.0781,1.25 0.15625,2.65625 0.0781,1.36718 0.11719,2.61718 0.0781,1.25 0.11719,2.26563 0.0781,0.97656 0.11718,1.44531 0.0391,0.27344 0.0781,0.89844 0.0781,0.625 0.19531,1.32812 0.15625,0.66407 0.35156,1.21094 0.23438,0.54688 0.58594,0.58594 0.58594,0 1.17188,-0.50781 0.625,-0.50782 1.21093,-1.28907 0.58594,-0.78125 1.09375,-1.71875 0.50782,-0.9375 0.89844,-1.79687 0.42969,-0.89844 0.625,-1.60156 0.23438,-0.70313 0.27344,-1.01563 0.0781,-0.66406 0.15625,-1.875 0.0781,-1.25 0.11719,-2.65625 0.0391,-1.40625 0.0391,-2.65625 0.0391,-1.25 0.0391,-1.91406 l 2.14844,0.11719 q 0.0391,3.16406 -0.0391,5.74218 -0.0781,2.53907 -0.0391,4.80469 0.0391,2.22656 0.35157,4.33594 0.3125,2.10937 1.13281,4.375 -0.11719,0.11719 -0.46875,0.3125 -0.35156,0.23437 -0.50781,0.23437 -0.97657,0 -1.32813,-0.66406 -0.3125,-0.625 -0.42969,-1.48437 -0.0781,-0.89844 -0.15625,-1.75782 -0.0391,-0.89843 -0.50781,-1.40625 z"
           style="font-style:normal;font-variant:normal;font-weight:normal;font-stretch:normal;font-family:'Shadows Into Light';-inkscape-font-specification:'Shadows Into Light, '"
           id="path851" />
      </g>
    </g>
  </g>
</svg>
